<?xml version="1.0" encoding="UTF-8"?>
<svg version="1.1" xmlns="http://www.w3.org/2000/svg" width="512" height="512">
<path d="M0 0 C0.86506261 -0.00445784 1.73012522 -0.00891569 2.62140185 -0.01350862 C4.04010259 -0.01323207 4.04010259 -0.01323207 5.48746395 -0.01294994 C7.00003014 -0.01846498 7.00003014 -0.01846498 8.54315323 -0.02409142 C11.93230501 -0.03513101 15.32142614 -0.0389726 18.71059322 -0.04278088 C21.13665521 -0.04904536 23.56271624 -0.05569215 25.98877621 -0.0626936 C33.27680391 -0.08192233 40.56482907 -0.09252256 47.85287443 -0.10142139 C51.28783391 -0.10580769 54.72279186 -0.11117366 58.15775013 -0.11641026 C69.58168785 -0.13342174 81.00562462 -0.14791447 92.42957306 -0.155159 C95.39303813 -0.15706879 98.35650319 -0.15898913 101.31996822 -0.16094494 C102.05649327 -0.16142868 102.79301831 -0.16191242 103.55186229 -0.16241082 C115.4749662 -0.17070572 127.39796961 -0.19603383 139.32102967 -0.22852562 C151.57167586 -0.26163695 163.82227106 -0.27961148 176.07296222 -0.28280324 C182.94739448 -0.28496471 189.82168023 -0.29365982 196.69606876 -0.31926441 C203.16638308 -0.34330873 209.63650564 -0.34677153 216.10685825 -0.33650303 C218.47754702 -0.33600795 220.84824881 -0.34232018 223.21889782 -0.35605907 C226.46441344 -0.37381087 229.70898774 -0.36665489 232.95450497 -0.35352612 C234.34978313 -0.36997998 234.34978313 -0.36997998 235.77324873 -0.38676625 C247.79637361 -0.26996882 256.97101385 4.52946504 265.41542721 12.86078358 C272.89366747 21.04945667 276.01456198 30.50805099 275.85642147 41.49907398 C275.85135154 42.7223029 275.85135154 42.7223029 275.84617919 43.97024351 C275.83279858 46.6890283 275.80523653 49.40748623 275.77797604 52.12616444 C275.76598514 54.08150092 275.75506707 56.03684423 275.74513912 57.99219227 C275.72277725 62.19805933 275.69534232 66.40385294 275.66473484 70.60966778 C275.61883254 77.27258826 275.59995068 83.93541196 275.5877142 90.59846973 C275.58554781 91.72485495 275.58338143 92.85124017 275.5811494 94.01175827 C275.57681425 96.3149225 275.57256181 98.61808688 275.56839025 100.92125142 C275.53965824 116.42630458 275.49532636 131.93065898 275.3673315 147.43524647 C275.28111693 157.9029831 275.24138816 168.36977534 275.25458449 178.83787352 C275.25974052 184.37021106 275.24176032 189.90023596 275.16687107 195.43211651 C275.09669778 200.64439425 275.08831793 205.85327698 275.12521267 211.0658617 C275.12803686 212.96690509 275.10904324 214.86814135 275.06529713 216.76868343 C274.78180594 229.82054893 277.33674697 237.13239948 286.37518501 246.69587517 C286.9305001 247.2663845 287.48581519 247.83689383 288.05795801 248.42469132 C290.52436234 251.04769125 292.63321104 253.87771106 294.79042721 256.75922108 C298.19677464 261.22214155 301.63043443 265.66007268 305.10292721 270.07172108 C305.56143063 270.65469959 306.01993404 271.23767811 306.4923315 271.83832264 C308.785151 274.75170352 311.08236808 277.66153205 313.38417721 280.56781483 C316.16070933 284.07747901 318.91707774 287.60245931 321.66542721 291.13422108 C322.47439449 292.16941883 322.47439449 292.16941883 323.29970455 293.22552967 C324.97335698 295.37501972 326.63338318 297.5344112 328.29042721 299.69672108 C328.81177242 300.36364979 329.33311764 301.0305785 329.87026119 301.71771717 C334.50732545 307.82030165 334.50732545 307.82030165 334.66542721 312.13422108 C332.38831877 317.77277529 332.38831877 317.77277529 329.66542721 319.13422108 C327.87810797 319.22504488 326.08737232 319.25175907 324.29775143 319.24774647 C323.17674038 319.24767094 322.05572933 319.24759541 320.90074825 319.24751759 C319.68613918 319.2423563 318.47153011 319.23719501 317.22011471 319.23187733 C315.35989178 319.22975491 315.35989178 319.22975491 313.46208858 319.22758961 C310.16424587 319.22293204 306.86645174 319.21394547 303.56862545 319.20288563 C300.20376334 319.19265839 296.83889413 319.18808917 293.47402096 319.1830492 C286.87113728 319.17200377 280.26828622 319.15525354 273.66542721 319.13422108 C273.68637447 320.25804188 273.70732174 321.38186268 273.72890377 322.53973866 C273.80196231 326.75721685 273.84746339 330.97464053 273.88515377 335.19257069 C273.90512064 337.009073 273.93230408 338.82551229 273.96718502 340.64178944 C274.27633698 357.16778021 271.92277956 369.11590324 260.47792721 381.69672108 C260.00999752 382.17238514 259.54206783 382.6480492 259.05995846 383.13812733 C254.11079686 390.22222137 254.14514394 397.79249496 253.97792721 406.13422108 C253.94376705 407.29051014 253.9096069 408.4467992 253.87441158 409.63812733 C253.79249613 412.47006154 253.72316199 415.30170809 253.66542721 418.13422108 C255.54681393 418.32951405 255.54681393 418.32951405 257.46620846 418.52875233 C263.11256871 419.11485961 266.72021598 421.89171537 270.41542721 426.07172108 C275.30779664 432.73077947 275.03796155 438.79099722 275.03603268 446.83441639 C275.0403858 448.86490545 275.0766863 450.89318126 275.11464596 452.92328358 C275.13859439 460.98592145 274.93187486 468.49868614 269.2176733 474.70721912 C263.74380122 479.51902646 259.49169792 480.43458424 252.35195065 480.44061756 C251.51565624 480.44894108 250.67936184 480.4572646 249.81772518 480.46584034 C247.0533701 480.48993175 244.28925114 480.49871226 241.52480221 480.50531483 C239.59912197 480.51428322 237.67344245 480.52340511 235.74776363 480.53267384 C231.709396 480.54916504 227.67111127 480.55686394 223.63271236 480.55975819 C218.46994089 480.56513597 213.30795407 480.60279051 208.14540386 480.64850235 C204.16641589 480.67831894 200.18761561 480.68548278 196.20852566 480.68648434 C194.30599793 480.69067904 192.40346925 480.70308314 190.5010519 480.72400188 C187.8322843 480.75100638 185.16531859 480.74606399 182.4964819 480.73358631 C181.3287801 480.75583775 181.3287801 480.75583775 180.13748837 480.7785387 C174.25473259 480.70063125 170.20646505 478.87084557 165.66542721 475.13422108 C159.15689698 467.74521697 159.42631655 461.08232728 159.37026119 451.45453358 C159.35876428 450.08138169 159.33834827 448.70827369 159.30873775 447.33539295 C159.10940627 438.07928514 159.16446845 431.35009723 165.41152096 424.11078358 C171.28857773 419.41456731 175.01579461 418.04485621 182.66542721 418.13422108 C182.44204698 414.67364371 182.18173154 411.21673897 181.91542721 407.75922108 C181.82261471 406.31095936 181.82261471 406.31095936 181.72792721 404.83343983 C180.29725689 387.0692834 169.69307493 375.91084615 157.42323971 363.97015858 C156.88323833 363.44271046 156.34323696 362.91526234 155.78687191 362.37183094 C153.55786509 360.19688697 151.32762661 358.0237435 149.07851315 355.86957264 C147.41084645 354.26888051 145.75989819 352.65238517 144.11073971 351.03265858 C143.60761257 350.55847492 143.10448544 350.08429127 142.58611202 349.59573841 C137.95207196 344.99715208 135.58232395 339.63631241 135.29042721 333.13422108 C135.66542721 329.13422108 135.66542721 329.13422108 138.66542721 321.13422108 C126.12542721 321.13422108 113.58542721 321.13422108 100.66542721 321.13422108 C101.65542721 324.10422108 102.64542721 327.07422108 103.66542721 330.13422108 C103.84511471 332.98968983 103.84511471 332.98968983 103.54042721 335.32172108 C103.45534908 336.09902576 103.37027096 336.87633045 103.28261471 337.67718983 C101.58610231 344.43102714 97.69583739 348.48011051 92.83730221 353.14984608 C92.17007137 353.80571705 91.50284054 354.46158802 90.81539059 355.13733387 C87.97929288 357.9247631 85.12586414 360.69418876 82.27333736 363.46478748 C67.34548463 378.00061644 58.27953028 389.17605715 57.10292721 410.50922108 C57.05974361 411.24527576 57.01656002 411.98133045 56.97206783 412.73968983 C56.86698921 414.53770176 56.76580628 416.33594066 56.66542721 418.13422108 C58.27224361 418.08588123 58.27224361 418.08588123 59.91152096 418.03656483 C65.48657444 418.18159744 69.35432565 419.98127437 73.43495846 423.78265858 C79.86395012 430.94683906 80.03828675 437.43494121 80.03603268 446.83441639 C80.0403858 448.86490545 80.0766863 450.89318126 80.11464596 452.92328358 C80.13859439 460.98592145 79.93187486 468.49868614 74.2176733 474.70721912 C68.74380122 479.51902646 64.49169792 480.43458424 57.35195065 480.44061756 C56.51565624 480.44894108 55.67936184 480.4572646 54.81772518 480.46584034 C52.0533701 480.48993175 49.28925114 480.49871226 46.52480221 480.50531483 C44.59912197 480.51428322 42.67344245 480.52340511 40.74776363 480.53267384 C36.709396 480.54916504 32.67111127 480.55686394 28.63271236 480.55975819 C23.46994089 480.56513597 18.30795407 480.60279051 13.14540386 480.64850235 C9.16641589 480.67831894 5.18761561 480.68548278 1.20852566 480.68648434 C-0.69400207 480.69067904 -2.59653075 480.70308314 -4.4989481 480.72400188 C-7.1677157 480.75100638 -9.83468141 480.74606399 -12.5035181 480.73358631 C-13.6712199 480.75583775 -13.6712199 480.75583775 -14.86251163 480.7785387 C-20.74526741 480.70063125 -24.79353495 478.87084557 -29.33457279 475.13422108 C-35.84310302 467.74521697 -35.57368345 461.08232728 -35.62973881 451.45453358 C-35.64123572 450.08138169 -35.66165173 448.70827369 -35.69126225 447.33539295 C-35.89059373 438.07928514 -35.83553155 431.35009723 -29.58847904 424.11078358 C-24.53410006 420.07194957 -20.93635383 418.02455694 -14.33457279 418.13422108 C-14.38694972 414.15402579 -14.48214243 410.17591802 -14.58457279 406.19672108 C-14.59875248 405.07974842 -14.61293217 403.96277576 -14.62754154 402.81195545 C-14.91797798 392.90807276 -17.04213774 386.15398506 -23.77207279 378.75922108 C-31.42425817 369.79595286 -34.50625844 361.0571057 -34.43222904 349.43109608 C-34.43081409 348.59330616 -34.42939915 347.75551624 -34.42794132 346.89233875 C-34.42235477 344.2229295 -34.40980473 341.55360487 -34.39707279 338.88422108 C-34.39205605 337.07172229 -34.38749345 335.25922219 -34.38340092 333.44672108 C-34.37238973 329.00918859 -34.35513434 324.57171917 -34.33457279 320.13422108 C-34.98523716 320.14088291 -35.63590153 320.14754475 -36.306283 320.15440845 C-43.08714697 320.22085271 -49.86791822 320.2660596 -56.64902592 320.299016 C-59.17868654 320.31408894 -61.70832108 320.33455068 -64.2378931 320.36053944 C-67.87695602 320.39698724 -71.51567295 320.41396277 -75.15488529 320.42718983 C-76.28322788 320.44267368 -77.41157047 320.45815754 -78.57410526 320.4741106 C-88.71067992 320.47627615 -88.71067992 320.47627615 -93.33457279 317.13422108 C-94.89707279 313.82172108 -94.89707279 313.82172108 -95.33457279 310.13422108 C-93.39089465 305.40264094 -90.53252498 301.57640755 -87.33457279 297.63422108 C-86.34484704 296.39475145 -85.3552678 295.15516482 -84.36582279 293.91547108 C-83.86179935 293.28769764 -83.35777592 292.6599242 -82.83847904 292.01312733 C-80.48276204 289.07001076 -78.15961834 286.10158137 -75.83457279 283.13422108 C-74.91807886 281.96741871 -74.00141175 280.80075235 -73.08457279 279.63422108 C-72.40394779 278.76797108 -72.40394779 278.76797108 -71.70957279 277.88422108 C-56.58457279 258.63422108 -56.58457279 258.63422108 -55.28373712 256.98306143 C-54.3718067 255.8196228 -53.46497035 254.65215519 -52.56553131 253.47903287 C-50.30483942 250.54731583 -48.0127375 247.74634485 -45.43611145 245.08598232 C-36.38288142 235.401676 -35.79147528 227.14660313 -36.05747318 214.28412342 C-36.0572615 212.32125191 -36.05213722 210.3583758 -36.04251957 208.39552784 C-36.03242016 204.19499378 -36.05669597 199.99662433 -36.10860729 195.79640293 C-36.19071976 189.14633239 -36.19553473 182.49751429 -36.19088078 175.84702015 C-36.19269944 165.32509109 -36.24690532 154.80418352 -36.32314819 144.28255522 C-36.45818217 125.44512208 -36.50860781 106.6073938 -36.53258604 87.76952231 C-36.5431269 81.16752528 -36.57808141 74.56624435 -36.63374913 67.96447825 C-36.66517858 63.85036995 -36.6804704 59.73630291 -36.69217777 55.62209606 C-36.70117561 53.72425939 -36.71710386 51.82644001 -36.74072933 49.92872906 C-36.93346947 34.05214559 -35.13564455 22.25891313 -23.67832279 10.42328358 C-17.23732411 4.43801593 -8.89449095 0.02132829 0 0 Z M-13.33457279 24.13422108 C-18.09218006 30.12654071 -19.48461909 35.23254297 -19.45482731 42.82201099 C-19.45568333 43.61079136 -19.45653934 44.39957172 -19.4574213 45.21225452 C-19.45908066 47.87205714 -19.45354608 50.53179723 -19.44809818 53.19159412 C-19.44779196 55.12433495 -19.44792515 57.05707589 -19.44846344 58.98981667 C-19.44868962 64.17553672 -19.44288485 69.36123381 -19.435853 74.54694843 C-19.43016702 79.40925133 -19.42989037 84.27154858 -19.42917728 89.13385487 C-19.42392552 103.36314666 -19.40996443 117.59243416 -19.39707279 131.82172108 C-19.37644779 163.60484608 -19.35582279 195.38797108 -19.33457279 228.13422108 C72.40542721 228.13422108 164.14542721 228.13422108 258.66542721 228.13422108 C258.76855221 196.49547108 258.87167721 164.85672108 258.97792721 132.25922108 C259.02344723 122.27430408 259.06896725 112.28938709 259.11586666 102.00189686 C259.13259026 93.04070427 259.13259026 93.04070427 259.14264584 84.07950306 C259.14729856 80.09230061 259.1660133 76.10543201 259.19330502 72.11832142 C259.22769542 67.02640181 259.23786572 61.93496507 259.23078859 56.84294009 C259.23226763 54.9780096 259.24212696 53.11306159 259.26150286 51.24823117 C259.57857766 37.38703842 259.57857766 37.38703842 253.66542721 25.13422108 C245.2086735 17.18930269 236.48898169 15.98057326 225.27277279 16.00050831 C223.86578254 15.99710997 223.86578254 15.99710997 222.43036824 15.99364299 C219.29150489 15.98731965 216.1526849 15.98813128 213.01381588 15.98895741 C210.76155193 15.98596488 208.50928848 15.98256213 206.25702572 15.97877979 C200.14126654 15.96994514 194.02552136 15.9676019 187.90975642 15.96696401 C184.08808576 15.9662532 180.26641866 15.9641183 176.44474888 15.96146679 C163.79815454 15.95269258 151.15157041 15.94804685 138.50497385 15.94879726 C137.48309577 15.9488572 137.48309577 15.9488572 136.44057369 15.94891834 C135.4174423 15.94897966 135.4174423 15.94897966 134.37364159 15.94904222 C123.32232824 15.94944858 112.27104897 15.93988085 101.21974548 15.92577998 C89.86175391 15.91140258 78.50378412 15.90469352 67.14578134 15.90537375 C60.77339484 15.90562863 54.40104692 15.90278318 48.0286684 15.8921957 C42.0344107 15.88250835 36.04022843 15.88243997 30.04596806 15.88971233 C27.84860149 15.89075738 25.65123022 15.88840006 23.45387173 15.88235188 C20.448837 15.87461769 17.44406182 15.87928631 14.43903255 15.88698292 C13.57442274 15.88183935 12.70981292 15.87669579 11.81900281 15.87139636 C2.15957432 15.92587481 -5.94928241 17.59337282 -13.33457279 24.13422108 Z M-36.02487934 259.90830052 C-38.27289249 263.72896456 -41.1584431 267.01571306 -44.02207279 270.38422108 C-48.81428933 276.21650653 -53.46309685 282.13895482 -58.03379154 288.14593983 C-60.92305091 291.89854325 -63.91554659 295.56104912 -66.93613529 299.20843983 C-68.53043479 301.00727986 -68.53043479 301.00727986 -68.33457279 303.13422108 C-63.60270185 303.38238278 -58.87464608 303.56326401 -54.13779545 303.68353748 C-52.52905143 303.73367931 -50.92075999 303.80182051 -49.3135767 303.88861561 C-44.1670576 304.15948503 -39.38546509 304.2569031 -34.33457279 303.13422108 C-31.81934817 300.73786189 -30.69237775 298.76199144 -29.41465092 295.54999256 C-27.88405789 292.12657078 -25.80123623 291.12340894 -22.43613529 289.73968983 C-19.0620859 288.7676124 -15.83657968 288.38436443 -12.33457279 288.13422108 C-12.1760181 287.40976795 -12.01746342 286.68531483 -11.85410404 285.93890858 C-10.35991165 279.74750362 -9.15021003 275.41478751 -4.33457279 271.13422108 C-0.57350197 269.20221838 3.22110265 268.22459217 7.35292721 267.38422108 C11.36615993 265.86979363 12.19481259 264.28612818 14.44667721 260.82172108 C16.50647852 257.96968849 18.31537088 257.16969303 21.66542721 256.13422108 C28.53508886 255.27187991 34.2628883 255.39917295 40.01698971 259.49750233 C41.83998235 261.30753531 42.80781788 263.04374228 43.97792721 265.32172108 C45.49950406 268.09150673 46.09230306 268.96344618 49.16933346 269.88031483 C51.09071639 270.13388509 53.01400784 270.37337406 54.93886471 270.59906483 C59.24182785 271.44362923 62.06768124 273.65408857 64.66542721 277.13422108 C67.66542721 284.13422108 67.66542721 284.13422108 68.66542721 303.13422108 C102.32542721 303.13422108 135.98542721 303.13422108 170.66542721 303.13422108 C170.99542721 296.86422108 171.32542721 290.59422108 171.66542721 284.13422108 C175.86927466 274.32524369 175.86927466 274.32524369 181.66542721 271.13422108 C184.39198971 270.59906483 184.39198971 270.59906483 187.29042721 270.25922108 C191.27803013 269.79267437 191.27803013 269.79267437 194.30605221 267.38422108 C195.1201688 265.98270391 195.89265056 264.55605054 196.61855221 263.10687733 C198.65113464 259.2768246 201.6657634 257.46744234 205.66542721 256.13422108 C212.6548181 255.44544427 218.99948871 255.60147028 224.66542721 260.13422108 C225.84511471 261.85297108 225.84511471 261.85297108 226.91542721 263.69672108 C228.57189096 266.35950069 229.39828081 267.04315703 232.42714596 268.07562733 C234.54117182 268.53067594 236.65845612 268.97084618 238.77870846 269.39593983 C242.92475868 270.45629638 244.77633273 272.0170402 247.66542721 275.13422108 C249.31430281 277.98390826 250.12842907 280.66880155 250.79042721 283.88422108 C250.95800533 284.68343983 251.12558346 285.48265858 251.29823971 286.30609608 C251.41941158 286.90937733 251.54058346 287.51265858 251.66542721 288.13422108 C252.38988033 288.23218983 253.11433346 288.33015858 253.86073971 288.43109608 C264.25489312 290.03872514 264.25489312 290.03872514 268.66542721 294.13422108 C270.31542721 297.10422108 271.96542721 300.07422108 273.66542721 303.13422108 C284.88542721 303.13422108 296.10542721 303.13422108 307.66542721 303.13422108 C305.72244635 299.24825936 303.42290568 296.11873395 300.72792721 292.75922108 C299.72524893 291.49625908 298.72264679 290.23323663 297.72011471 288.97015858 C297.20932369 288.32917225 296.69853268 287.68818592 296.17226315 287.02777576 C293.88705228 284.15608174 291.61935432 281.27074802 289.35292721 278.38422108 C288.91126217 277.82218983 288.46959713 277.26015858 288.0145483 276.68109608 C284.11572163 271.71619476 280.23174731 266.73976336 276.35292721 261.75922108 C275.77824703 261.02219959 275.20356686 260.28517811 274.61147213 259.52582264 C274.05564449 258.81135975 273.49981686 258.09689686 272.92714596 257.36078358 C272.44205563 256.73768299 271.95696529 256.11458241 271.45717525 255.47259998 C269.66542721 253.13422108 269.66542721 253.13422108 268.58462673 251.19370705 C266.57118723 247.90259433 265.01852901 245.55684238 261.23784339 244.37600124 C258.16827201 244.07299727 255.1823805 244.0247896 252.097785 244.0577898 C250.92576772 244.03895979 249.75375045 244.02012977 248.5462175 244.00072914 C245.30055229 243.95695113 242.0570994 243.94896803 238.81122005 243.9564923 C235.30770342 243.95606717 231.80473802 243.90986135 228.30148983 243.86995411 C221.43979461 243.79969026 214.57862971 243.77394865 207.7166047 243.76603007 C202.13563771 243.75949024 196.55484907 243.74067442 190.97394657 243.71324825 C175.13795864 243.63704363 159.30240197 243.59552115 143.46622955 243.59669506 C142.61278265 243.59675198 141.75933575 243.59680891 140.88002682 243.59686756 C139.5982858 243.59696466 139.5982858 243.59696466 138.29065103 243.59706373 C124.45414621 243.59596108 110.61956081 243.51159424 96.783643 243.38953947 C82.5643171 243.2651011 68.34593064 243.20447869 54.12604672 243.20935398 C46.14748666 243.21075869 38.17101417 243.18602128 30.19295216 243.09228802 C23.39672778 243.01290552 16.60347947 242.99297658 9.80696606 243.04859208 C6.34202279 243.07526288 2.88282496 243.07527076 -0.58153248 243.00006199 C-17.99945877 242.69011484 -27.38464287 244.00068104 -36.02487934 259.90830052 Z M26.66542721 272.13422108 C24.95629929 273.84334899 25.54053724 276.06629351 25.53945065 278.40082264 C25.53564388 279.52579151 25.53183712 280.65076038 25.527915 281.80981922 C25.52688778 283.03577808 25.52586056 284.26173695 25.52480221 285.52484608 C25.50647337 288.09646951 25.48690299 290.66808434 25.46620846 293.23968983 C25.43585422 297.31283027 25.4131044 301.38566388 25.41493893 305.45892811 C25.41587826 309.37707714 25.37708189 313.29439263 25.33730221 317.21234608 C25.34437191 318.43020802 25.35144161 319.64806995 25.35872555 320.9028368 C25.22288017 330.31683827 25.22288017 330.31683827 22.34999752 333.44183826 C19.66542721 335.13422108 19.66542721 335.13422108 16.04042721 335.13422108 C12.71077892 334.14765862 11.69472927 333.79049374 9.66542721 331.13422108 C9.26669979 329.02711964 9.26669979 329.02711964 9.23305416 326.57098866 C9.21326 325.65026066 9.19346584 324.72953266 9.17307186 323.78090382 C9.16668194 322.79019382 9.16029202 321.79948383 9.15370846 320.77875233 C9.12678165 319.25359249 9.12678165 319.25359249 9.09931087 317.69762135 C9.0450918 314.44736355 9.01127461 311.19725357 8.97792721 307.94672108 C8.94476442 305.7442265 8.91027574 303.54175145 8.87441158 301.3392992 C8.78935888 295.93773904 8.72105823 290.53616002 8.66542721 285.13422108 C7.34542721 285.46422108 6.02542721 285.79422108 4.66542721 286.13422108 C4.66178158 286.69132267 4.65813595 287.24842426 4.65437984 287.82240772 C4.61261249 293.61386501 4.5433086 299.4045255 4.45790768 305.19550037 C4.4296586 307.35752874 4.40846375 309.51966113 4.39443111 311.6818285 C4.37305625 314.78759649 4.32643378 317.8921084 4.27480221 320.99750233 C4.27295925 322.45075665 4.27295925 322.45075665 4.27107906 323.93336964 C4.24150112 325.2844305 4.24150112 325.2844305 4.21132565 326.66278553 C4.2024432 327.45554386 4.19356075 328.24830219 4.18440914 329.0650835 C3.66542721 331.13422108 3.66542721 331.13422108 1.85396481 332.8902483 C-1.33112383 334.70066433 -3.741641 334.52617727 -7.33457279 334.13422108 C-9.95050432 332.30306901 -10.30446735 331.22453741 -11.33457279 328.13422108 C-11.48235215 326.4355492 -11.58204345 324.73244619 -11.65097904 323.02875233 C-11.69287357 322.04584217 -11.7347681 321.06293201 -11.77793217 320.0502367 C-11.81724857 319.02607655 -11.85656498 318.00191639 -11.89707279 316.94672108 C-11.94025639 315.91095936 -11.98343998 314.87519764 -12.02793217 313.8080492 C-12.13401645 311.25023918 -12.23607425 308.69233262 -12.33457279 306.13422108 C-14.28060553 305.54352094 -14.28060553 305.54352094 -16.33457279 305.13422108 C-17.93066536 306.73031364 -17.47781778 308.40741122 -17.4957056 310.61884022 C-17.50531315 311.57396 -17.51492069 312.52907978 -17.52481937 313.51314259 C-17.52906925 314.55470005 -17.53331913 315.59625751 -17.53769779 316.66937733 C-17.54339787 317.73659519 -17.54909794 318.80381306 -17.55497074 319.90337086 C-17.56444151 322.1706591 -17.57096292 324.43796124 -17.57480717 326.705266 C-17.58446378 330.15774539 -17.61544757 333.60961721 -17.64707279 337.06195545 C-17.65360751 339.26442587 -17.65885614 341.46690056 -17.66269779 343.66937733 C-17.68121799 345.2104591 -17.68121799 345.2104591 -17.70011234 346.78267384 C-17.6716717 356.04320327 -15.7432637 362.11046693 -9.39707279 369.13422108 C0.33006403 380.2839867 1.9209286 390.60644655 2.29042721 405.13422108 C2.41417721 409.42422108 2.53792721 413.71422108 2.66542721 418.13422108 C14.87542721 418.13422108 27.08542721 418.13422108 39.66542721 418.13422108 C40.03667721 412.31797108 40.03667721 412.31797108 40.41542721 406.38422108 C41.09057166 397.44099497 41.88280726 389.35552513 45.66542721 381.13422108 C46.04948727 380.29802235 46.43354733 379.46182362 46.82924557 378.60028553 C52.38013053 367.98223423 60.99669639 360.35366695 69.54042721 352.13422108 C71.84253594 349.90769392 74.1406543 347.67747426 76.43010616 345.43793201 C77.84569801 344.05424651 79.26883528 342.67822774 80.7003088 341.31097889 C81.33832424 340.6893285 81.97633968 340.06767811 82.63368893 339.42718983 C83.47805004 338.615443 83.47805004 338.615443 84.33946896 337.78729725 C85.86944704 335.87986893 86.38906987 334.55726841 86.66542721 332.13422108 C85.31379051 329.88666355 85.31379051 329.88666355 83.66542721 328.13422108 C78.12440743 328.38372291 75.54138908 331.832657 71.97792721 335.63422108 C70.83025477 336.83411834 69.68060549 338.03212884 68.52870846 339.22797108 C68.02637691 339.76099842 67.52404537 340.29402576 67.00649166 340.84320545 C64.20318048 343.54189643 61.39959613 343.35610725 57.63808346 343.56000233 C55.66542721 343.13422108 55.66542721 343.13422108 54.06915951 341.43433094 C52.39993002 338.69918607 52.27172377 337.09305813 52.23305416 333.90668201 C52.21326 332.86590504 52.19346584 331.82512806 52.17307186 330.75281239 C52.16668194 329.636021 52.16029202 328.51922962 52.15370846 327.36859608 C52.13575726 326.22006153 52.11780605 325.07152699 52.09931087 323.88818836 C52.0451338 320.2202366 52.01128752 316.55241553 51.97792721 312.88422108 C51.94476077 310.3972237 51.91027175 307.91024358 51.87441158 305.42328358 C51.78940295 299.32704659 51.72108425 293.23079285 51.66542721 287.13422108 C50.34542721 286.80422108 49.02542721 286.47422108 47.66542721 286.13422108 C46.49171031 288.48165488 46.52281837 289.91910956 46.49184322 292.53632069 C46.47835339 293.44744114 46.46486355 294.35856159 46.45096493 295.29729176 C46.44052654 296.28375187 46.43008816 297.27021198 46.41933346 298.28656483 C46.38640093 300.36274101 46.35318918 302.43891278 46.31972408 304.51508045 C46.27225 307.79817185 46.22781352 311.08124458 46.18862057 314.36444569 C46.14898324 317.52617513 46.09742331 320.68753673 46.04433346 323.84906483 C46.0359193 324.83350071 46.02750515 325.81793659 46.01883602 326.83220387 C46.00219402 327.74647648 45.98555202 328.66074909 45.96840572 329.60272694 C45.95809826 330.40721775 45.94779079 331.21170856 45.93717098 332.04057789 C45.66542721 334.13422108 45.66542721 334.13422108 43.66542721 337.13422108 C36.7965177 338.68526516 36.7965177 338.68526516 33.22792721 336.94672108 C30.27401608 333.52018417 30.52552227 329.63771943 30.46010494 325.26410389 C30.43018711 323.49272053 30.43018711 323.49272053 30.39966488 321.68555164 C30.38295238 320.41564381 30.36623989 319.14573597 30.34902096 317.83734608 C30.32823986 316.53343922 30.30745876 315.22953236 30.28604794 313.88611317 C30.23097485 310.427263 30.18150081 306.96835467 30.13320065 303.50940418 C30.08287749 299.9767387 30.02724799 296.44415719 29.97206783 292.91156483 C29.864667 285.98585645 29.76318224 279.06007214 29.66542721 272.13422108 C28.67542721 272.13422108 27.68542721 272.13422108 26.66542721 272.13422108 Z M209.66542721 272.13422108 C208.33545241 274.79417068 208.51876525 276.84279502 208.49184322 279.82147694 C208.47835339 281.01288792 208.46486355 282.2042989 208.45096493 283.43181324 C208.44052654 284.72450626 208.43008816 286.01719929 208.41933346 287.34906483 C208.40383474 288.68424262 208.38762543 290.01941234 208.37073421 291.35457325 C208.29994296 297.0306201 208.23981748 302.7067436 208.18862057 308.38300037 C208.15683186 311.85431344 208.11555801 315.325409 208.06842518 318.79654598 C208.04461248 320.76351676 208.0316598 322.73060926 208.01883602 324.69768238 C208.00219402 325.89224552 207.98555202 327.08680866 207.96840572 328.31757069 C207.95809826 329.37077 207.94779079 330.42396931 207.93717098 331.50908375 C207.66542721 334.13422108 207.66542721 334.13422108 205.66542721 337.13422108 C201.78681913 338.15875906 199.5323074 338.49228029 195.79042721 336.94672108 C193.36039638 334.87404773 193.19851891 334.18289343 192.66542721 331.13422108 C192.55515864 329.60834823 192.49018049 328.07881647 192.46010494 326.54926014 C192.43018711 325.19831257 192.43018711 325.19831257 192.39966488 323.82007313 C192.38295238 322.8563982 192.36623989 321.89272327 192.34902096 320.89984608 C192.32823986 319.90668385 192.30745876 318.91352161 192.28604794 317.89026356 C192.22072972 314.72165226 192.16174982 311.55295897 192.10292721 308.38422108 C192.05972514 306.23447306 192.0161103 304.08473329 191.97206783 301.93500233 C191.8650665 296.66816159 191.7632673 291.40123953 191.66542721 286.13422108 C190.34542721 286.46422108 189.02542721 286.79422108 187.66542721 287.13422108 C187.65956097 287.77679859 187.65369473 288.41937611 187.64765072 289.08142567 C187.58375324 295.76500559 187.4993428 302.44810238 187.40297604 309.13129139 C187.36970652 311.62601829 187.34168098 314.12082083 187.31899166 316.61566639 C187.28548371 320.20030443 187.23316809 323.784248 187.17714596 327.36859608 C187.16756107 329.04378315 187.16756107 329.04378315 187.15778255 330.75281239 C187.1379884 331.79358936 187.11819424 332.83436634 187.09780025 333.90668201 C187.0866972 334.82157398 187.07559414 335.73646595 187.06415462 336.67908192 C186.58359489 339.63809848 185.76979363 341.01403944 183.66542721 343.13422108 C179.50858175 343.90922616 177.19512582 344.12299965 173.61073971 341.80609608 C170.82961034 339.40371974 168.30789363 336.81267628 165.78261471 334.14593983 C162.30033091 330.44700565 162.30033091 330.44700565 157.91542721 328.00922108 C155.62360951 327.96120285 155.62360951 327.96120285 153.79042721 329.25922108 C152.47881918 331.08039066 152.47881918 331.08039066 152.66689205 333.30756092 C154.19326067 337.62841567 157.24067683 340.12110168 160.51698971 343.23578358 C161.20924648 343.91289387 161.90150326 344.59000416 162.61473751 345.28763294 C165.56844899 348.17626441 168.54485148 351.04107183 171.52040768 353.9071703 C192.38073693 374.06491367 197.69134268 388.52295314 199.66542721 418.13422108 C211.87542721 418.13422108 224.08542721 418.13422108 236.66542721 418.13422108 C236.87454921 409.69924527 236.87454921 409.69924527 237.05336666 401.26361561 C237.46037176 388.09487141 240.80308043 377.44642615 249.79042721 367.57172108 C256.21360265 360.34015014 257.24547075 352.94424471 257.05605221 343.53656483 C257.04756252 341.92425732 257.04756252 341.92425732 257.03890133 340.27937794 C257.01667038 336.87635541 256.96649781 333.47442057 256.91542721 330.07172108 C256.89534509 327.75207492 256.87709734 325.43241211 256.86073971 323.1127367 C256.81684933 317.45286598 256.75007133 311.79362127 256.66542721 306.13422108 C254.71939447 305.54352094 254.71939447 305.54352094 252.66542721 305.13422108 C251.03756679 306.7620815 251.49907475 308.62298263 251.45448971 310.86859608 C251.42613033 311.83539295 251.39777096 312.80218983 251.36855221 313.79828358 C251.31686885 315.83977605 251.2724819 317.88146755 251.23573971 319.92328358 C251.05465374 325.61240097 250.90143361 329.89821467 246.66542721 334.13422108 C240.49310196 334.60005694 240.49310196 334.60005694 237.46907711 332.8980608 C235.22353476 330.70208209 235.15422555 329.75947271 235.11952877 326.66278553 C235.09981014 325.76207829 235.08009151 324.86137104 235.05977535 323.93336964 C235.05854671 322.96453342 235.05731808 321.99569721 235.05605221 320.99750233 C235.03951595 320.00292515 235.0229797 319.00834797 235.00594234 317.98363209 C234.95732771 314.80459979 234.93606127 311.62604628 234.91542721 308.44672108 C234.88727884 306.29239994 234.85735302 304.13810123 234.82558346 301.98383045 C234.75156559 296.70071465 234.70000211 291.41773424 234.66542721 286.13422108 C233.34542721 285.80422108 232.02542721 285.47422108 230.66542721 285.13422108 C230.65662785 285.98866558 230.65662785 285.98866558 230.64765072 286.86037159 C230.58378757 292.78149303 230.49938683 298.70206736 230.40297604 304.62274647 C230.36969213 306.83328514 230.34167109 309.0439095 230.31899166 311.25458241 C230.28550961 314.42967774 230.23319669 317.60398525 230.17714596 320.77875233 C230.17075603 321.76946232 230.16436611 322.76017231 230.15778255 323.78090382 C230.1379884 324.70163181 230.11819424 325.62235981 230.09780025 326.57098866 C230.0866972 327.38151188 230.07559414 328.1920351 230.06415462 329.02711964 C229.56509244 331.66444678 228.78588283 332.5257937 226.66542721 334.13422108 C223.29042721 335.13422108 223.29042721 335.13422108 219.66542721 335.13422108 C217.04848571 333.48526449 216.09240538 332.77671856 214.66542721 330.13422108 C213.90081889 325.82212307 213.94431962 321.54757668 213.95839596 317.17718983 C213.94327465 315.91909 213.92815334 314.66099018 213.91257381 313.36476612 C213.87691464 310.03206281 213.8625386 306.70065841 213.85854244 303.36786366 C213.84919666 299.96234096 213.81177436 296.55713754 213.77675533 293.1517992 C213.71382574 286.4792661 213.67895339 279.80702733 213.66542721 273.13422108 C212.34542721 272.80422108 211.02542721 272.47422108 209.66542721 272.13422108 Z M-18.33457279 437.13422108 C-18.81738538 441.09368998 -18.70496255 445.08616419 -18.70957279 449.07172108 C-18.73406498 450.18224842 -18.75855717 451.29277576 -18.78379154 452.43695545 C-18.78765873 453.50107655 -18.79152592 454.56519764 -18.79551029 455.66156483 C-18.80372807 456.63859364 -18.81194584 457.61562244 -18.82041264 458.62225819 C-18.55973155 461.20105454 -18.55973155 461.20105454 -16.74744511 462.76695728 C-13.46427709 464.62737764 -11.00913258 464.51535903 -7.24277592 464.52240467 C-6.53660633 464.52766163 -5.83043674 464.53291859 -5.10286808 464.53833485 C-2.77362655 464.55151539 -0.44507102 464.54280413 1.88417721 464.53265858 C3.50555712 464.53467988 5.12693615 464.5375918 6.74831295 464.54135609 C10.14443789 464.54577678 13.54032592 464.5393567 16.9364233 464.52533436 C21.28783939 464.50824245 25.63870036 464.51808502 29.99009609 464.53605175 C33.33756849 464.54689655 36.68490945 464.54344009 40.03238583 464.53566837 C41.63674644 464.53366828 43.24111902 464.53611894 44.84546566 464.54310703 C47.08850838 464.55073317 49.33065434 464.53910212 51.57363033 464.52240467 C53.48746517 464.5188245 53.48746517 464.5188245 55.43996334 464.515172 C58.86219639 464.11098119 60.28390745 463.58417741 62.66542721 461.13422108 C63.24855852 458.56417445 63.24855852 458.56417445 63.12636471 455.66156483 C63.12249752 454.59744373 63.11863033 453.53332264 63.11464596 452.43695545 C63.09015377 451.32642811 63.06566158 450.21590076 63.04042721 449.07172108 C63.03913815 447.95732655 63.03784908 446.84293201 63.03652096 445.69476795 C63.3743636 439.84759748 63.3743636 439.84759748 60.66542721 435.13422108 C58.20699799 434.93602826 55.86123122 434.8614015 53.40175533 434.87543201 C52.65365093 434.87192738 51.90554653 434.86842274 51.1347723 434.8648119 C48.65531362 434.85599018 46.17613893 434.86184519 43.69667721 434.86859608 C41.97796734 434.86724955 40.25925784 434.86530912 38.54054928 434.86279774 C34.93581681 434.85984588 31.33118334 434.86414607 27.72646236 434.87347889 C23.09913661 434.88487349 18.47204284 434.87831434 13.84472561 434.86633396 C10.29490559 434.859117 6.74514083 434.86140253 3.19531918 434.86658955 C1.48882679 434.8679265 -0.21767056 434.86627673 -1.92415714 434.86163044 C-4.30654084 434.85656786 -6.68854554 434.86427141 -9.07090092 434.87543201 C-10.13541225 434.86935932 -10.13541225 434.86935932 -11.22142887 434.86316395 C-15.22409077 434.79059421 -15.22409077 434.79059421 -18.33457279 437.13422108 Z M176.66542721 437.13422108 C176.18261462 441.09368998 176.29503745 445.08616419 176.29042721 449.07172108 C176.26593502 450.18224842 176.24144283 451.29277576 176.21620846 452.43695545 C176.21234127 453.50107655 176.20847408 454.56519764 176.20448971 455.66156483 C176.19627193 456.63859364 176.18805416 457.61562244 176.17958736 458.62225819 C176.44026845 461.20105454 176.44026845 461.20105454 178.25255489 462.76695728 C181.53572291 464.62737764 183.99086742 464.51535903 187.75722408 464.52240467 C188.46339367 464.52766163 189.16956326 464.53291859 189.89713192 464.53833485 C192.22637345 464.55151539 194.55492898 464.54280413 196.88417721 464.53265858 C198.50555712 464.53467988 200.12693615 464.5375918 201.74831295 464.54135609 C205.14443789 464.54577678 208.54032592 464.5393567 211.9364233 464.52533436 C216.28783939 464.50824245 220.63870036 464.51808502 224.99009609 464.53605175 C228.33756849 464.54689655 231.68490945 464.54344009 235.03238583 464.53566837 C236.63674644 464.53366828 238.24111902 464.53611894 239.84546566 464.54310703 C242.08850838 464.55073317 244.33065434 464.53910212 246.57363033 464.52240467 C248.48746517 464.5188245 248.48746517 464.5188245 250.43996334 464.515172 C253.86219639 464.11098119 255.28390745 463.58417741 257.66542721 461.13422108 C258.24855852 458.56417445 258.24855852 458.56417445 258.12636471 455.66156483 C258.12249752 454.59744373 258.11863033 453.53332264 258.11464596 452.43695545 C258.09015377 451.32642811 258.06566158 450.21590076 258.04042721 449.07172108 C258.03913815 447.95732655 258.03784908 446.84293201 258.03652096 445.69476795 C258.3743636 439.84759748 258.3743636 439.84759748 255.66542721 435.13422108 C253.20699799 434.93602826 250.86123122 434.8614015 248.40175533 434.87543201 C247.65365093 434.87192738 246.90554653 434.86842274 246.1347723 434.8648119 C243.65531362 434.85599018 241.17613893 434.86184519 238.69667721 434.86859608 C236.97796734 434.86724955 235.25925784 434.86530912 233.54054928 434.86279774 C229.93581681 434.85984588 226.33118334 434.86414607 222.72646236 434.87347889 C218.09913661 434.88487349 213.47204284 434.87831434 208.84472561 434.86633396 C205.29490559 434.859117 201.74514083 434.86140253 198.19531918 434.86658955 C196.48882679 434.8679265 194.78232944 434.86627673 193.07584286 434.86163044 C190.69345916 434.85656786 188.31145446 434.86427141 185.92909908 434.87543201 C184.86458775 434.86935932 184.86458775 434.86935932 183.77857113 434.86316395 C179.77590923 434.79059421 179.77590923 434.79059421 176.66542721 437.13422108 Z " fill="#000000" transform="translate(136.33457279205322,15.865778923034668)"/>
<path d="M0 0 C2.57782666 0.08889057 4.14788327 0.32188801 6.5625 1.3125 C9.48359455 5.05150102 9.29917673 9.60225947 8.83628082 14.14743233 C8.31205632 17.55095202 7.71103527 20.93268494 7.08300781 24.31860352 C6.85388702 25.60575256 6.62476624 26.89290161 6.38870239 28.21905518 C5.76299712 31.73130052 5.12255938 35.24070802 4.47889042 38.74969983 C3.80545184 42.43260157 3.144179 46.1176896 2.48114014 49.80247498 C1.36612134 55.9882433 0.24163546 62.17223281 -0.88867188 68.35522461 C-2.1930583 75.4910421 -3.48308152 82.62934069 -4.7652843 89.76917511 C-6.00199808 96.65410652 -7.24826206 103.53727523 -8.49906158 110.41966057 C-9.02988627 113.34119265 -9.5575085 116.26327584 -10.08254242 119.18585396 C-10.81701378 123.2709988 -11.56549628 127.35345635 -12.31542969 131.43579102 C-12.53063263 132.64170395 -12.74583557 133.84761688 -12.96755981 135.09007263 C-14.03759946 140.85073403 -15.07061413 146.13488565 -17.875 151.3125 C-21.36304095 153.63786063 -22.77640754 153.64707898 -26.875 153.3125 C-29.46910551 152.44779816 -30.53079851 151.85398959 -31.99930763 149.54376602 C-34.89484695 142.16592567 -31.07123723 131.06960585 -29.69775391 123.51660156 C-29.368265 121.67300301 -29.368265 121.67300301 -29.03211975 119.79216003 C-28.43444592 116.45498391 -27.83250783 113.11863954 -27.22803164 109.78269291 C-26.72194418 106.98712979 -26.21860845 104.19107378 -25.71516454 101.3950336 C-24.52720001 94.79817717 -23.33400657 88.20228103 -22.13769531 81.60693359 C-20.9066863 74.81966584 -19.68546933 68.03068615 -18.46885931 61.24082398 C-17.42005528 55.38976397 -16.36474666 49.53990178 -15.30435312 43.69093108 C-14.67277494 40.20672088 -14.04372199 36.72210312 -13.42113113 33.23627472 C-12.72720335 29.35272301 -12.01973672 25.47170454 -11.31103516 21.59082031 C-11.00696999 19.87317726 -11.00696999 19.87317726 -10.69676208 18.12083435 C-7.4610897 0.60170078 -7.4610897 0.60170078 0 0 Z " fill="#000000" transform="translate(267.875,61.6875)"/>
<path d="M0 0 C3.0625 1.73046875 3.0625 1.73046875 6 4.1875 C6.54487061 4.63311279 7.08974121 5.07872559 7.65112305 5.5378418 C8.8292372 6.50383243 10.00052381 7.47819842 11.16552734 8.45996094 C13.03640625 10.03056303 14.92955629 11.56942578 16.83203125 13.1015625 C20.20075973 15.81601145 23.55420377 18.54851717 26.90332031 21.28710938 C30.49238204 24.21920731 34.09028663 27.14041369 37.6875 30.0625 C38.34661377 30.5985083 39.00572754 31.1345166 39.68481445 31.68676758 C40.62006958 32.44703247 40.62006958 32.44703247 41.57421875 33.22265625 C42.15993652 33.69977051 42.7456543 34.17688477 43.34912109 34.66845703 C44.84994266 35.87896884 46.37120583 37.06402612 47.89453125 38.24609375 C50.76571977 40.63786303 50.94917868 41.55107833 51.375 45.3125 C50.72173038 51.73631789 44.80482645 55.14135833 40.0625 59.125 C39.21715698 59.837771 39.21715698 59.837771 38.35473633 60.56494141 C33.80152917 64.37970572 29.15544232 68.06561728 24.46777344 71.71313477 C18.99138615 75.98024198 13.60918843 80.35909892 8.2409668 84.76123047 C7.60070557 85.28475098 6.96044434 85.80827148 6.30078125 86.34765625 C5.45253784 87.04387085 5.45253784 87.04387085 4.5871582 87.75415039 C0.48328009 90.9755148 -1.80017323 91.53791311 -7 91 C-9.9375 89.5 -9.9375 89.5 -12 87 C-12.94288914 80.39977604 -12.94288914 80.39977604 -10.35546875 76.55859375 C-7.71536611 73.69082057 -4.84770241 71.34073849 -1.75 69 C-0.50421732 68.04034762 0.74053151 67.079352 1.984375 66.1171875 C2.63599609 65.61413086 3.28761719 65.11107422 3.95898438 64.59277344 C7.5126241 61.8195742 11.00580318 58.97248533 14.5 56.125 C15.15774414 55.59003906 15.81548828 55.05507812 16.49316406 54.50390625 C20.35039326 51.3614163 24.18368413 48.19204197 28 45 C27.46375 44.57332031 26.9275 44.14664063 26.375 43.70703125 C22.31117972 40.46533251 18.25650886 37.21427276 14.23046875 33.92578125 C12.88286584 32.8254555 11.53520846 31.72519646 10.1875 30.625 C9.50872803 30.07070312 8.82995605 29.51640625 8.13061523 28.9453125 C2.63931081 24.47886937 -2.95787311 20.17145955 -8.62109375 15.92578125 C-11 14 -11 14 -12 12 C-12.56872038 4.9478673 -12.56872038 4.9478673 -10.5 1.5 C-7.05653488 -0.56607907 -3.88108519 -0.57922534 0 0 Z " fill="#000000" transform="translate(303,93)"/>
<path d="M0 0 C2.5 1.5 2.5 1.5 4 4 C4.70002578 7.88196114 5.07566163 10.32243385 2.91796875 13.6875 C-1.82806796 18.68585765 -7.63135078 22.73335129 -13.078125 26.94140625 C-18.04473866 30.79040527 -22.89940174 34.77585826 -27.75756836 38.76025391 C-28.39831299 39.28409668 -29.03905762 39.80793945 -29.69921875 40.34765625 C-30.54746216 41.04387085 -30.54746216 41.04387085 -31.4128418 41.75415039 C-32.88626114 42.91071998 -34.44146123 43.96097416 -36 45 C-30.98712435 49.62828995 -25.81780733 53.99733819 -20.4375 58.1875 C-14.98516835 62.43567744 -9.56628934 66.72141533 -4.1875 71.0625 C-3.4874585 71.62283936 -2.78741699 72.18317871 -2.06616211 72.76049805 C-1.4191333 73.28426025 -0.77210449 73.80802246 -0.10546875 74.34765625 C0.47050049 74.81179932 1.04646973 75.27594238 1.63989258 75.75415039 C3.92383738 77.84622907 4.02072193 79.18304371 4.375 82.3125 C4 86 4 86 1.9375 88.9375 C-1.83124413 91.58363949 -3.45233344 91.59072782 -8 91 C-10.81592665 89.39426069 -13.14480815 87.33442953 -15.5625 85.1875 C-16.9795002 83.98193357 -18.39748618 82.77752495 -19.81640625 81.57421875 C-20.52039551 80.96884277 -21.22438477 80.3634668 -21.94970703 79.73974609 C-24.89874538 77.23738276 -27.94170492 74.86647487 -31 72.5 C-36.22307358 68.41890768 -41.40642727 64.29042747 -46.5625 60.125 C-47.22958984 59.58939453 -47.89667969 59.05378906 -48.58398438 58.50195312 C-58.80470602 50.21516253 -58.80470602 50.21516253 -59.5625 45.5 C-58.52823413 39.06456794 -53.78412713 35.81059124 -48.8125 32.0625 C-44.05236983 28.40431029 -39.36637518 24.6798548 -34.75439453 20.83618164 C-31.18929114 17.86662464 -27.59643199 14.93147726 -24 12 C-23.27893066 11.40848145 -22.55786133 10.81696289 -21.81494141 10.20751953 C-19.70573535 8.49120945 -17.57589381 6.80473335 -15.4375 5.125 C-14.80730957 4.60687744 -14.17711914 4.08875488 -13.52783203 3.55493164 C-8.8686106 -0.03786222 -5.86919082 -0.6583431 0 0 Z " fill="#000000" transform="translate(217,93)"/>
</svg>
